<svg height="512pt" viewBox="0 0 512 512" width="512pt" xmlns="http://www.w3.org/2000/svg"><path d="m448.800781 241h-385.601562c-34.847657 0-63.199219 28.351562-63.199219 63.199219 0 34.847656 28.351562 63.199219 63.199219 63.199219h385.601562c34.847657 0 63.195313-28.351563 63.195313-63.199219 0-34.847657-28.347656-63.199219-63.195313-63.199219zm0 0" fill="#e56705"/><path d="m448.800781 241h-192.800781v126.398438h192.800781c34.847657 0 63.195313-28.351563 63.195313-63.199219 0-34.847657-28.347656-63.199219-63.195313-63.199219zm0 0" fill="#a24603"/><path d="m383.875 331.675781c-19.011719-54.234375-70.402344-90.675781-127.875-90.675781-57.476562 0-108.863281 36.441406-127.875 90.675781-1.101562 3.140625-1.128906 6.554688-.074219 9.707031l46.664063 139.984376c1.050781 3.148437 3.113281 5.863281 5.871094 7.710937 22.347656 14.996094 48.425781 22.921875 75.414062 22.921875s53.066406-7.925781 75.414062-22.921875c2.757813-1.847656 4.820313-4.5625 5.871094-7.710937l46.664063-139.984376c1.054687-3.152343 1.023437-6.566406-.074219-9.707031zm0 0" fill="#a24603"/><path d="m383.875 331.675781c-19.011719-54.234375-70.402344-90.675781-127.875-90.675781v271c26.988281 0 53.066406-7.925781 75.414062-22.921875 2.757813-1.847656 4.820313-4.5625 5.871094-7.710937l46.664063-139.984376c1.054687-3.152343 1.023437-6.566406-.074219-9.707031zm0 0" fill="#e56705"/><path d="m329.71875 361.351562c-7.128906-34.824218-38.128906-60.101562-73.71875-60.101562-35.894531 0-66.949219 25.535156-73.84375 60.714844-.5 2.542968-.332031 5.171875.488281 7.628906l18.816407 56.429688c.816406 2.460937 2.261718 4.664062 4.1875 6.402343 13.832031 12.460938 31.714843 19.324219 50.351562 19.324219 18.632812 0 36.515625-6.863281 50.347656-19.324219 1.941406-1.75 3.394532-3.980469 4.210938-6.460937l18.714844-56.921875c.816406-2.480469.96875-5.132813.445312-7.691407zm0 0" fill="#ffde46"/><path d="m329.71875 361.351562c-7.128906-34.824218-38.128906-60.101562-73.71875-60.101562v150.5c18.632812 0 36.515625-6.863281 50.347656-19.324219 1.941406-1.75 3.394532-3.980469 4.210938-6.460937l18.714844-56.921875c.816406-2.480469.96875-5.132813.445312-7.691407zm0 0" fill="#ff9f04"/><path d="m376.5 321.332031c-52.566406 0-95.335938 42.769531-95.335938 95.332031 0 52.570313 42.769532 95.335938 95.335938 95.335938s95.332031-42.765625 95.332031-95.335938c0-52.5625-42.765625-95.332031-95.332031-95.332031zm0 0" fill="#a24603"/><path d="m135.5 321.332031c-52.566406 0-95.332031 42.769531-95.332031 95.332031 0 52.570313 42.765625 95.335938 95.332031 95.335938s95.332031-42.765625 95.332031-95.335938c0-52.5625-42.765625-95.332031-95.332031-95.332031zm0 0" fill="#e56705"/><path d="m384.53125 0c-25.519531 0-49.496094 9.953125-67.511719 28.027344-5.847656 5.867187-5.832031 15.363281.035157 21.210937 4.082031 4.070313 9.917968 5.292969 15.0625 3.691407l33.476562 107.097656c-5.148438 1.613281-9.25 5.949218-10.285156 11.625-1.484375 8.152344 3.917968 15.960937 12.070312 17.445312 5.707032 1.039063 11.476563 1.566406 17.152344 1.566406 52.566406 0 95.332031-42.765624 95.332031-95.332031 0-52.566406-42.765625-95.332031-95.332031-95.332031zm0 0" fill="#e56705"/><path d="m194.976562 28.027344c-18.015624-18.074219-41.992187-28.027344-67.507812-28.027344-52.570312 0-95.335938 42.765625-95.335938 95.332031 0 52.566407 42.765626 95.332031 95.332032 95.332031 5.679687 0 11.449218-.523437 17.15625-1.566406 8.152344-1.484375 13.554687-9.292968 12.070312-17.445312-1.035156-5.671875-5.140625-10.011719-10.285156-11.625l33.472656-107.097656c5.144532 1.601562 10.984375.378906 15.066406-3.691407 5.863282-5.847656 5.878907-15.34375.03125-21.210937zm0 0" fill="#a24603"/><path d="m256 0c-74.714844 0-135.5 60.785156-135.5 135.5s60.785156 135.5 135.5 135.5 135.5-60.785156 135.5-135.5-60.785156-135.5-135.5-135.5zm0 0" fill="#e56705"/><path d="m256 0v271c74.714844 0 135.5-60.785156 135.5-135.5s-60.785156-135.5-135.5-135.5zm0 0" fill="#a24603"/><path d="m256 120.5c-41.492188 0-75.25 33.757812-75.25 75.25s33.757812 75.25 75.25 75.25 75.25-33.757812 75.25-75.25-33.757812-75.25-75.25-75.25zm0 0" fill="#ffde46"/><path d="m256 120.5v150.5c41.492188 0 75.25-33.757812 75.25-75.25s-33.757812-75.25-75.25-75.25zm0 0" fill="#ff9f04"/><path d="m256 120.5c-21.5625 0-39.101562 17.539062-39.101562 39.101562 0 21.558594 17.539062 39.097657 39.101562 39.097657 21.558594 0 39.097656-17.539063 39.097656-39.097657 0-21.5625-17.539062-39.101562-39.097656-39.101562zm0 0" fill="#663325"/><path d="m207.804688 105.511719c-3.949219 0-7.820313-1.601563-10.609376-4.394531-2.792968-2.789063-4.390624-6.65625-4.390624-10.605469 0-3.941407 1.597656-7.8125 4.390624-10.613281 2.789063-2.789063 6.660157-4.386719 10.609376-4.386719 3.9375 0 7.808593 1.597656 10.597656 4.386719 2.800781 2.800781 4.402344 6.660156 4.402344 10.613281 0 3.949219-1.601563 7.816406-4.402344 10.605469-2.789063 2.792968-6.648438 4.394531-10.597656 4.394531zm0 0" fill="#663325"/><g fill="#3c1b13"><path d="m304.203125 105.511719c-3.949219 0-7.820313-1.601563-10.609375-4.394531-2.789062-2.789063-4.390625-6.65625-4.390625-10.605469 0-3.953125 1.601563-7.8125 4.390625-10.613281 2.789062-2.789063 6.660156-4.386719 10.609375-4.386719 3.9375 0 7.8125 1.597656 10.601563 4.386719 2.800781 2.800781 4.398437 6.671874 4.398437 10.613281 0 3.949219-1.601563 7.816406-4.398437 10.605469-2.792969 2.792968-6.664063 4.394531-10.601563 4.394531zm0 0"/><path d="m256 120.5v78.199219c21.558594 0 39.097656-17.539063 39.097656-39.101563 0-21.558594-17.539062-39.097656-39.097656-39.097656zm0 0"/></g></svg>