<svg height="512pt" viewBox="0 0 512 512" width="512pt" xmlns="http://www.w3.org/2000/svg"><path d="m376.5 215.832031c0 22.09375-18.074219 40.167969-40.164062 40.167969h-160.671876c-22.089843 0-40.164062-18.074219-40.164062-40.167969v-160.667969c0-22.089843 18.074219-40.164062 40.164062-40.164062h160.671876c22.089843 0 40.164062 18.074219 40.164062 40.164062zm0 0" fill="#fef4f5"/><path d="m336.335938 15h-80.335938v241h80.335938c22.089843 0 40.164062-18.074219 40.164062-40.167969v-160.667969c0-22.089843-18.074219-40.164062-40.164062-40.164062zm0 0" fill="#d5eded"/><path d="m336.335938 271h-160.671876c-30.417968 0-55.164062-24.746094-55.164062-55.167969v-160.667969c0-30.417968 24.746094-55.164062 55.164062-55.164062h160.671876c30.417968 0 55.164062 24.746094 55.164062 55.164062v160.667969c0 30.421875-24.746094 55.167969-55.164062 55.167969zm-160.671876-241c-13.875 0-25.164062 11.289062-25.164062 25.164062v160.667969c0 13.878907 11.289062 25.167969 25.164062 25.167969h160.671876c13.875 0 25.164062-11.289062 25.164062-25.167969v-160.667969c0-13.875-11.289062-25.164062-25.164062-25.164062zm0 0" fill="#ff4949"/><path d="m336.335938 0h-80.335938v30h80.335938c13.875 0 25.164062 11.289062 25.164062 25.164062v160.667969c0 13.878907-11.289062 25.167969-25.164062 25.167969h-80.335938v30h80.335938c30.417968 0 55.164062-24.746094 55.164062-55.167969v-160.667969c0-30.417968-24.746094-55.164062-55.164062-55.164062zm0 0" fill="#f30051"/><path d="m211.253906 186.03125c0-.320312.160156-.964844.320313-1.605469l31.011719-101.066406c1.445312-4.820313 7.390624-7.066406 13.335937-7.066406 6.101563 0 12.050781 2.246093 13.496094 7.066406l31.011719 101.066406c.160156.640625.316406 1.125.316406 1.605469 0 4.980469-7.550782 8.675781-13.171875 8.675781-3.535157 0-6.265625-1.121093-7.070313-4.175781l-6.105468-21.371094h-36.792969l-6.105469 21.371094c-.804688 3.054688-3.535156 4.175781-7.070312 4.175781-5.625 0-13.175782-3.53125-13.175782-8.675781zm58.644532-33.261719-13.976563-49.324219-13.980469 49.324219zm0 0" fill="#ff4949"/><path d="m497 456.832031c0 22.09375-18.074219 40.167969-40.164062 40.167969h-160.671876c-22.089843 0-40.164062-18.074219-40.164062-40.167969v-160.667969c0-22.089843 18.074219-40.164062 40.164062-40.164062h160.671876c22.089843 0 40.164062 18.074219 40.164062 40.164062zm0 0" fill="#fef4f5"/><path d="m456.835938 256h-80.335938v241h80.335938c22.089843 0 40.164062-18.074219 40.164062-40.167969v-160.667969c0-22.089843-18.074219-40.164062-40.164062-40.164062zm0 0" fill="#d5eded"/><path d="m456.835938 512h-160.671876c-30.417968 0-55.164062-24.746094-55.164062-55.167969v-160.667969c0-30.417968 24.746094-55.164062 55.164062-55.164062h160.671876c30.417968 0 55.164062 24.746094 55.164062 55.164062v160.667969c0 30.421875-24.746094 55.167969-55.164062 55.167969zm-160.671876-241c-13.875 0-25.164062 11.289062-25.164062 25.164062v160.667969c0 13.878907 11.289062 25.167969 25.164062 25.167969h160.671876c13.875 0 25.164062-11.289062 25.164062-25.167969v-160.667969c0-13.875-11.289062-25.164062-25.164062-25.164062zm0 0" fill="#00abe9"/><path d="m376.582031 335.609375c-10.765625 0-16.871093 5.945313-16.871093 18.476563v44.828124c0 12.535157 6.105468 18.476563 17.191406 18.476563 14.621094 0 15.90625-10.441406 16.386718-17.191406.324219-4.980469 4.820313-6.585938 10.285157-6.585938 7.230469 0 10.605469 2.089844 10.605469 10.28125 0 19.445313-15.910157 31.816407-38.402344 31.816407-20.246094 0-36.957032-9.960938-36.957032-36.796876v-44.828124c0-26.832032 16.871094-36.792969 37.117188-36.792969 22.332031 0 38.242188 11.890625 38.242188 30.527343 0 8.355469-3.375 10.28125-10.445313 10.28125-5.945313 0-10.285156-1.765624-10.445313-6.585937-.316406-4.980469-1.441406-15.90625-16.707031-15.90625zm0 0" fill="#00abe9"/><path d="m256 456.832031c0 22.09375-18.074219 40.167969-40.164062 40.167969h-160.671876c-22.089843 0-40.164062-18.074219-40.164062-40.167969v-160.667969c0-22.089843 18.074219-40.164062 40.164062-40.164062h160.671876c22.089843 0 40.164062 18.074219 40.164062 40.164062zm0 0" fill="#fef4f5"/><path d="m215.835938 256h-80.335938v241h80.335938c22.089843 0 40.164062-18.074219 40.164062-40.167969v-160.667969c0-22.089843-18.074219-40.164062-40.164062-40.164062zm0 0" fill="#d5eded"/><path d="m215.835938 512h-160.671876c-30.417968 0-55.164062-24.746094-55.164062-55.167969v-160.667969c0-30.417968 24.746094-55.164062 55.164062-55.164062h160.671876c30.417968 0 55.164062 24.746094 55.164062 55.164062v160.667969c0 30.421875-24.746094 55.167969-55.164062 55.167969zm-160.671876-241c-13.875 0-25.164062 11.289062-25.164062 25.164062v160.667969c0 13.878907 11.289062 25.167969 25.164062 25.167969h160.671876c13.875 0 25.164062-11.289062 25.164062-25.167969v-160.667969c0-13.875-11.289062-25.164062-25.164062-25.164062zm0 0" fill="#b9dd39"/><path d="m97.816406 324.359375c0-4.339844 4.5-6.589844 9.160156-6.589844h31.011719c16.710938 0 32.296875 5.464844 32.296875 28.28125 0 13.175781-5.144531 21.851563-13.65625 25.546875 9.800782 3.855469 16.550782 10.125 16.550782 26.191406v3.375c0 25.0625-13.980469 34.0625-32.140626 34.0625h-34.0625c-5.621093 0-9.160156-3.050781-9.160156-6.425781zm20.734375 39.042969h17.988281c8.679688 0 12.859376-5.621094 12.859376-13.8125 0-8.359375-4.824219-13.5-13.019532-13.5h-17.832031v27.3125zm18.152344 53.507812c9.804687 0 15.585937-5.304687 15.585937-17.515625v-2.570312c0-12.535157-5.78125-17.027344-15.585937-17.027344h-18.152344v37.113281zm0 0" fill="#b9dd39"/><path d="m280.503906 190.53125c.804688 3.054688 3.535156 4.175781 7.070313 4.175781 5.621093 0 13.171875-3.695312 13.171875-8.675781 0-.480469-.15625-.964844-.316406-1.605469l-31.011719-101.066406c-1.441407-4.796875-7.34375-7.046875-13.417969-7.066406v27.429687l13.898438 49.050782h-13.898438v16.390624h18.398438zm0 0" fill="#f30051"/><path d="m215.835938 241h-80.335938v30h80.335938c13.875 0 25.164062 11.289062 25.164062 25.164062v160.667969c0 13.878907-11.289062 25.167969-25.164062 25.167969h-80.335938v30h80.335938c30.417968 0 55.164062-24.746094 55.164062-55.167969v-160.667969c0-30.417968-24.746094-55.164062-55.164062-55.164062zm0 0" fill="#00ab5e"/><g fill="#0065a3"><path d="m456.835938 241h-80.335938v30h80.335938c13.875 0 25.164062 11.289062 25.164062 25.164062v160.667969c0 13.878907-11.289062 25.167969-25.164062 25.167969h-80.335938v30h80.335938c30.417968 0 55.164062-24.746094 55.164062-55.167969v-160.667969c0-30.417968-24.746094-55.164062-55.164062-55.164062zm0 0"/><path d="m403.574219 393.609375c-5.464844 0-9.960938 1.609375-10.285157 6.589844-.476562 6.75-1.765624 17.191406-16.386718 17.191406-.140625 0-.265625-.011719-.402344-.011719v18.316406c22.105469-.265624 37.679688-12.566406 37.679688-31.800781 0-8.195312-3.375-10.285156-10.605469-10.285156zm0 0"/><path d="m376.582031 335.609375c15.265625 0 16.390625 10.925781 16.707031 15.90625.160157 4.820313 4.5 6.585937 10.445313 6.585937 7.070313 0 10.445313-1.925781 10.445313-10.285156 0-18.476562-15.644532-30.316406-37.679688-30.515625v18.308594zm0 0"/></g><path d="m156.628906 371.597656c8.515625-3.691406 13.65625-12.371094 13.65625-25.546875 0-22.816406-15.585937-28.277343-32.296875-28.277343h-2.492187v18.316406h.886718c8.191407 0 13.015626 5.140625 13.015626 13.5 0 8.191406-4.179688 13.8125-12.855469 13.8125h-1.042969v16.394531h1.207031c9.800781 0 15.582031 4.492187 15.582031 17.027344v2.570312c0 12.210938-5.78125 17.515625-15.582031 17.515625h-1.207031v18.316406h5.542969c18.15625 0 32.136719-9 32.136719-34.0625v-3.375c0-16.066406-6.75-22.335937-16.550782-26.191406zm0 0" fill="#00ab5e"/></svg>