<svg height="512pt" viewBox="0 0 512 512" width="512pt" xmlns="http://www.w3.org/2000/svg"><path d="m464.867188 64.265625h-18.558594c-7.03125-36.558594-39.261719-64.265625-77.84375-64.265625-43.707032 0-79.265625 35.558594-79.265625 79.265625v104.433594c0 13.878906-11.289063 25.167969-25.164063 25.167969h-168.703125c-52.566406 0-95.332031 42.765624-95.332031 95.332031v192.800781c0 6.78125 4.554688 12.722656 11.105469 14.484375 1.292969.347656 2.601562.515625 3.898437.515625 5.25 0 10.242188-2.769531 12.972656-7.476562l34.097657-58.789063c.039062-.066406.078125-.136719.117187-.203125 3.757813-6.722656 7.140625-11.941406 10.109375-15.988281v51.390625c0 17.128906 13.9375 31.066406 31.066407 31.066406h48.199218c17.132813 0 31.066406-13.9375 31.066406-31.066406v-65.335938h58.367188v65.335938c0 17.128906 13.933594 31.066406 31.066406 31.066406h48.199219c17.128906 0 31.066406-13.9375 31.066406-31.066406v-66.757813c36.558594-7.03125 64.269531-39.261719 64.269531-77.84375v-177.796875h49.265626c25.988281 0 47.132812-21.144531 47.132812-47.132812 0-25.992188-21.144531-47.136719-47.132812-47.136719zm0 0" fill="#b9dd39"/><path d="m464.867188 64.265625h-18.558594c-7.03125-36.558594-39.261719-64.265625-77.84375-64.265625-43.707032 0-79.265625 35.558594-79.265625 79.265625v104.433594c0 13.878906-11.289063 25.167969-25.164063 25.167969h-52.21875v206.730468h29.183594v65.335938c0 17.128906 13.933594 31.066406 31.066406 31.066406h48.199219c17.128906 0 31.066406-13.9375 31.066406-31.066406v-66.757813c36.558594-7.03125 64.269531-39.261719 64.269531-77.84375v-177.796875h49.265626c25.988281 0 47.132812-21.144531 47.132812-47.132812 0-25.992188-21.144531-47.136719-47.132812-47.136719zm0 0" fill="#00ab5e"/><path d="m368.464844 94.269531c-3.941406 0-7.8125-1.601562-10.609375-4.390625-2.792969-2.800781-4.390625-6.671875-4.390625-10.609375 0-3.949219 1.597656-7.820312 4.390625-10.609375 2.796875-2.789062 6.65625-4.390625 10.609375-4.390625 3.949218 0 7.820312 1.601563 10.609375 4.390625 2.789062 2.789063 4.390625 6.660156 4.390625 10.609375s-1.601563 7.808594-4.390625 10.609375c-2.800781 2.789063-6.660157 4.390625-10.609375 4.390625zm0 0" fill="#001035"/></svg>