<svg height="512pt" viewBox="-39 0 512 512" width="512pt" xmlns="http://www.w3.org/2000/svg"><path d="m297.824219 393.632812h-160.667969c-8.28125 0-15 6.714844-15 15v48.199219c0 30.421875 24.75 55.167969 55.167969 55.167969 15.820312 0 30.097656-6.703125 40.167969-17.410156 10.066406 10.707031 24.34375 17.410156 40.164062 17.410156 30.417969 0 55.167969-24.746094 55.167969-55.167969v-48.199219c0-8.285156-6.71875-15-15-15zm0 0" fill="#fdd1a3"/><path d="m297.824219 393.632812h-80.335938v100.957032h.003907c10.066406 10.707031 24.34375 17.410156 40.164062 17.410156 30.417969 0 55.167969-24.746094 55.167969-55.167969v-48.199219c0-8.285156-6.71875-15-15-15zm0 0" fill="#f5a86c"/><path d="m146.980469 223.734375c-2.851563-3.386719-7.050781-5.34375-11.480469-5.34375h-80.332031c-30.421875 0-55.167969 24.75-55.167969 55.167969 0 30.417968 24.746094 55.167968 55.167969 55.167968h66.363281c7.292969 0 13.527344-5.246093 14.777344-12.433593l13.96875-80.332031c.757812-4.363282-.449219-8.835938-3.296875-12.226563zm0 0" fill="#fdd1a3"/><path d="m379.8125 218.394531h-80.332031c-4.425781 0-8.628907 1.957031-11.480469 5.34375-2.847656 3.390625-4.054688 7.863281-3.296875 12.226563l13.96875 80.332031c1.25 7.1875 7.488281 12.429687 14.78125 12.429687h66.359375c30.421875 0 55.167969-24.746093 55.167969-55.164062 0-30.421875-24.746094-55.167969-55.167969-55.167969zm0 0" fill="#f5a86c"/><path d="m409.097656 231.394531-35.203125-100.839843c-2.105469-6.019532-7.785156-10.054688-14.164062-10.054688h-282.824219c-6.378906 0-12.058594 4.03125-14.160156 10.054688l-34.957032 100.125c-1.597656 4.582031-.882812 9.65625 1.921876 13.617187 2.808593 3.960937 7.355468 6.316406 12.210937 6.324219l352.984375.71875h.03125c4.851562 0 9.40625-2.347656 12.21875-6.304688 2.820312-3.960937 3.546875-9.046875 1.941406-13.640625zm0 0" fill="#00317e"/><path d="m409.097656 231.394531-35.203125-100.839843c-2.105469-6.019532-7.785156-10.054688-14.164062-10.054688h-142.242188v130.480469l177.417969.359375h.03125c4.851562 0 9.40625-2.351563 12.21875-6.304688 2.820312-3.960937 3.546875-9.046875 1.941406-13.640625zm0 0" fill="#001035"/><path d="m337.851562 366.488281-23.59375-135.667969c-1.417968-8.160156-9.1875-13.628906-17.347656-12.207031-7.296875 1.269531-12.425781 7.613281-12.417968 14.777344h-134.003907c.007813-7.164063-5.121093-13.507813-12.417969-14.777344-8.160156-1.417969-15.929687 4.046875-17.347656 12.207031l-23.59375 135.667969c-2.566406 14.746094 1.164063 29.390625 10.234375 40.171875 9.070313 10.785156 22.855469 16.972656 37.828125 16.972656h144.597656c14.96875 0 28.757813-6.1875 37.824219-16.972656 9.074219-10.78125 12.804688-25.425781 10.238281-40.171875zm0 0" fill="#ff4949"/><path d="m337.851562 366.488281-23.59375-135.667969c-1.417968-8.160156-9.1875-13.628906-17.347656-12.207031-7.296875 1.269531-12.425781 7.613281-12.417968 14.777344h-67.003907v190.242187h72.300781c14.96875 0 28.757813-6.1875 37.824219-16.972656 9.074219-10.78125 12.804688-25.425781 10.238281-40.171875zm0 0" fill="#f30051"/><path d="m358.074219 120.5c-69.246094 0-125.582031-47.328125-125.582031-105.5 0-8.285156-6.71875-15-15-15-8.285157 0-15 6.714844-15 15 0 58.171875-56.339844 105.5-125.585938 105.5-8.28125 0-15 6.714844-15 15 0 36.636719 16.484375 70.941406 46.414062 96.597656 29.269532 25.085938 68.042969 38.902344 109.171876 38.902344 41.125 0 79.898437-13.816406 109.167968-38.902344 29.929688-25.65625 46.414063-59.960937 46.414063-96.597656 0-8.285156-6.71875-15-15-15zm0 0" fill="#fdd1a3"/><path d="m358.074219 120.5c-69.246094 0-125.582031-47.328125-125.582031-105.5 0-8.285156-6.71875-15-15-15 0 0 0 0-.003907 0v271h.003907c41.125 0 79.898437-13.816406 109.167968-38.902344 29.929688-25.65625 46.414063-59.960937 46.414063-96.597656 0-8.285156-6.71875-15-15-15zm0 0" fill="#f5a86c"/><path d="m321.574219 375.433594h-208.167969c-8.28125 0-15-6.714844-15-15s6.71875-15 15-15h208.167969c8.28125 0 15 6.714844 15 15s-6.71875 15-15 15zm0 0" fill="#fef4f5"/><path d="m313.453125 328.726562h-191.921875c-8.285156 0-15-6.714843-15-15 0-8.285156 6.714844-15 15-15h191.917969c8.285156 0 15 6.714844 15 15 .003906 8.285157-6.714844 15-14.996094 15zm0 0" fill="#fef4f5"/><path d="m169.292969 190.667969c-3.949219 0-7.808594-1.597657-10.609375-4.398438-2.789063-2.789062-4.390625-6.648437-4.390625-10.601562 0-3.949219 1.601562-7.816407 4.390625-10.609375 2.789062-2.789063 6.660156-4.390625 10.609375-4.390625 3.941406 0 7.8125 1.601562 10.601562 4.390625 2.800781 2.792968 4.398438 6.660156 4.398438 10.609375s-1.597657 7.8125-4.398438 10.601562c-2.789062 2.800781-6.660156 4.398438-10.601562 4.398438zm0 0" fill="#00317e"/><path d="m265.695312 190.667969c-3.949218 0-7.820312-1.597657-10.609374-4.398438-2.792969-2.789062-4.402344-6.648437-4.402344-10.601562 0-3.949219 1.609375-7.816407 4.402344-10.609375 2.789062-2.789063 6.660156-4.390625 10.609374-4.390625 3.9375 0 7.808594 1.601562 10.597657 4.390625 2.792969 2.792968 4.390625 6.660156 4.390625 10.609375s-1.597656 7.8125-4.390625 10.601562c-2.789063 2.800781-6.660157 4.398438-10.597657 4.398438zm0 0" fill="#001035"/><path d="m326.660156 38.90625c-29.269531-25.089844-68.039062-38.90625-109.167968-38.90625-41.132813 0-79.902344 13.816406-109.171876 38.90625-29.929687 25.652344-46.414062 59.957031-46.414062 96.59375 0 8.285156 6.71875 15 15 15 41.132812 0 79.902344-13.816406 109.171875-38.902344 13.15625-11.277344 23.710937-24.230468 31.414063-38.3125 7.699218 14.082032 18.253906 27.035156 31.410156 38.3125 29.269531 25.085938 68.042968 38.902344 109.171875 38.902344 8.28125 0 15-6.714844 15-15 0-36.636719-16.484375-70.941406-46.414063-96.59375zm0 0" fill="#00317e"/><path d="m326.660156 38.90625c-29.269531-25.089844-68.039062-38.90625-109.167968-38.90625 0 0 0 0-.003907 0v73.285156h.003907c7.699218 14.082032 18.253906 27.035156 31.410156 38.3125 29.269531 25.085938 68.042968 38.902344 109.171875 38.902344 8.28125 0 15-6.714844 15-15 0-36.636719-16.484375-70.941406-46.414063-96.59375zm0 0" fill="#001035"/><g fill="#d5eded"><path d="m321.574219 345.433594h-104.085938v30h104.085938c8.28125 0 15-6.714844 15-15s-6.71875-15-15-15zm0 0"/><path d="m328.453125 313.726562c0-8.285156-6.71875-15-15-15h-95.960937v30h95.960937c8.28125 0 15-6.714843 15-15zm0 0"/></g></svg>