<svg height="512pt" viewBox="-32 0 511 512" width="512pt" xmlns="http://www.w3.org/2000/svg"><path d="m124.128906 209.558594c-.628906-1.367188-1.453125-2.628906-2.457031-3.75-14.242187-15.917969-23.21875-35.476563-25.960937-56.550782-.214844-1.671874-.71875-3.304687-1.476563-4.8125-1.992187-3.96875-5.644531-6.851562-9.96875-7.867187s-8.878906-.0625-12.433594 2.601563l-54.066406 40.554687c-18.105469 13.578125-18.761719 25.851563-16.125 33.761719s10.527344 17.335937 33.160156 17.335937h75.703125c5.105469 0 9.859375-2.609375 12.617188-6.910156 2.757812-4.300781 3.136718-9.71875 1.007812-14.363281zm0 0" fill="#ff9f00"/><path d="m411.519531 191.734375c-6.792969 0-13.898437 1.371094-21.109375 4.078125-.519531.191406-1.027344.417969-1.519531.667969l-87.726563 44.519531h-15.917968c30.820312-24.855469 50.578125-62.910156 50.578125-105.5 0-74.714844-60.785157-135.5-135.503907-135.5-74.714843 0-135.5 60.785156-135.5 135.5 0 44.808594 21.867188 84.601562 55.488282 109.28125-59.417969 14.351562-103.6875 67.957031-103.6875 131.71875 0 74.714844 60.785156 135.5 135.5 135.5h160.664062c74.71875 0 135.503906-60.785156 135.503906-135.5v-150.625c0-20.101562-15.121093-34.140625-36.769531-34.140625zm0 0" fill="#ffde46"/><path d="m411.519531 191.734375c-6.792969 0-13.898437 1.371094-21.109375 4.078125-.519531.191406-1.027344.417969-1.519531.667969l-87.726563 44.519531h-15.917968c30.820312-24.855469 50.578125-62.910156 50.578125-105.5 0-66.492188-48.144531-121.949219-111.402344-133.351562v509.851562h88.367187c74.714844 0 135.5-60.785156 135.5-135.5v-150.625c0-20.101562-15.121093-34.140625-36.769531-34.140625zm0 0" fill="#ff9f04"/><path d="m184.253906 80.332031c-21.558594 0-39.097656 17.542969-39.097656 39.101563s17.539062 39.101562 39.097656 39.101562 39.101563-17.539062 39.101563-39.101562c0-21.558594-17.542969-39.101563-39.101563-39.101563zm0 0" fill="#00317e"/><path d="m284.671875 301.25h-120.5c-41.496094 0-75.25 33.757812-75.25 75.25 0 41.496094 33.753906 75.25 75.25 75.25h120.496094c41.492187 0 75.25-33.753906 75.25-75.25.003906-41.492188-33.753907-75.25-75.246094-75.25zm0 0" fill="#ff9f00"/><path d="m284.671875 301.25h-60.25v150.5h60.25c41.492187 0 75.25-33.753906 75.25-75.25 0-41.492188-33.757813-75.25-75.25-75.25zm0 0" fill="#ff641a"/></svg>