<svg width="303" height="303" viewBox="0 0 303 303" fill="none" xmlns="http://www.w3.org/2000/svg">
<path d="M251.551 153.166C251.005 153.166 250.46 153.227 249.914 153.257C249.975 151.712 250.036 150.167 250.036 148.621C250.066 120.321 236.855 91.6272 218.857 76.962C191.526 54.6915 171.74 50.6919 153.651 50.601C147.228 50.5707 142.864 51.0555 142.864 51.0555C142.895 51.0858 142.925 51.1464 142.986 51.1767C93.3846 55.8732 54.54 97.566 54.5097 148.409C54.5097 149.955 54.54 151.47 54.6309 153.015C54.2976 153.015 53.9946 152.954 53.6613 152.954C39.7233 152.954 28.4214 164.226 28.3911 178.164C28.3608 192.102 39.6627 203.404 53.6007 203.434C56.7216 203.434 59.691 202.858 62.4786 201.798C74.4774 233.704 110.08 256.883 152.167 256.914C194.344 256.974 230.068 233.764 242.067 201.768C244.976 202.949 248.157 203.616 251.52 203.616C265.458 203.616 276.76 192.344 276.791 178.406C276.76 164.468 265.489 153.166 251.551 153.166ZM263.549 181.527C261.519 188.527 256.308 189.799 251.581 190.314C243.673 191.132 234.28 187.224 234.28 187.224C219.675 221.584 189.133 241.794 148.682 240.643C87.8094 238.915 72.6594 187.436 72.6594 187.436C69.4779 189.587 63.024 190.557 56.4186 190.557C51.207 190.557 44.1168 187.405 42.9048 179.164C41.7231 171.104 48.5406 165.953 54.0552 164.468C59.2668 163.044 67.569 162.105 67.569 162.105C67.8417 154.924 68.5083 148.288 69.5385 142.137C81.7494 68.6598 143.683 62.8725 165.711 64.5693C222.614 68.9022 233.795 126.048 236.158 143.531C237.643 154.56 236.855 161.953 236.855 161.953C246.612 162.499 253.005 164.044 256.944 165.923C262.125 168.347 265.67 174.134 263.549 181.527Z" fill="#ffffff"/>
<path d="M121.2 163.287C123.2 169.468 120.018 176.164 114.14 178.255C108.262 180.346 101.869 177.013 99.8688 170.831C97.869 164.65 101.051 157.954 106.929 155.863C112.686 153.833 118.958 156.954 121.079 162.953L121.2 163.287Z" fill="#ffffff"/>
<path d="M205.767 163.256C207.767 169.438 204.586 176.134 198.707 178.225C192.829 180.315 186.436 176.982 184.436 170.801C182.436 164.62 185.618 157.924 191.496 155.833C197.253 153.803 203.525 156.924 205.646 162.923L205.767 163.256Z" fill="#ffffff"/>
<path d="M50.601 129.866C50.601 129.866 70.9929 134.593 95.1723 134.593L110.292 110.11L123.745 137.138C123.745 137.138 190.284 139.471 254.247 130.654C254.247 130.654 240.006 46.0863 153.651 46.0863C77.1438 46.0863 54.7218 106.141 50.601 129.866Z" fill="#ffffff"/>
<path d="M236.37 73.8107C236.37 73.8107 259.126 47.0255 292.819 51.7523C304.667 69.296 300.243 97.4447 290.91 110.08C280.002 103.444 270.034 100.596 252.975 100.111C252.975 100.141 248.702 84.5066 236.37 73.8107Z" fill="#ffffff"/>
<path d="M66.6297 73.8107C66.6297 73.8107 43.8744 47.0255 10.1808 51.7523C-1.66653 69.296 2.75728 97.4447 12.0897 110.08C22.9977 103.444 32.9664 100.596 50.0253 100.111C50.0253 100.141 54.2976 84.5066 66.6297 73.8107Z" fill="#ffffff"/>
</svg>
