<svg height="512pt" viewBox="0 0 512 512" width="512pt" xmlns="http://www.w3.org/2000/svg"><path d="m456.832031 401.664062h-401.667969c-30.417968 0-55.164062 24.75-55.164062 55.167969 0 30.421875 24.746094 55.167969 55.164062 55.167969h401.667969c30.421875 0 55.167969-24.746094 55.167969-55.167969 0-30.417969-24.746094-55.167969-55.167969-55.167969zm0 0" fill="#ff9f00"/><path d="m456.832031 401.664062h-200.832031v110.335938h200.832031c30.421875 0 55.167969-24.746094 55.167969-55.167969 0-30.417969-24.746094-55.167969-55.167969-55.167969zm0 0" fill="#ff641a"/><path d="m408.632812 321.332031h-305.269531c-30.417969 0-55.164062 24.75-55.164062 55.167969s24.746093 55.164062 55.164062 55.164062h305.269531c30.417969 0 55.167969-24.746093 55.167969-55.164062s-24.75-55.167969-55.167969-55.167969zm0 0" fill="#ff4949"/><path d="m408.632812 321.332031h-152.632812v110.332031h152.632812c30.417969 0 55.167969-24.746093 55.167969-55.164062s-24.75-55.167969-55.167969-55.167969zm0 0" fill="#f30051"/><path d="m376.5 241h-241c-30.421875 0-55.167969 24.746094-55.167969 55.164062 0 30.421876 24.746094 55.167969 55.167969 55.167969h241c30.417969 0 55.164062-24.746093 55.164062-55.167969 0-30.417968-24.746093-55.164062-55.164062-55.164062zm0 0" fill="#ffde46"/><path d="m376.5 241h-120.5v110.332031h120.5c30.417969 0 55.164062-24.746093 55.164062-55.167969 0-30.417968-24.746093-55.164062-55.164062-55.164062zm0 0" fill="#ff9f04"/><path d="m344.363281 160.664062h-176.730469c-30.417968 0-55.164062 24.75-55.164062 55.167969 0 30.421875 24.746094 55.167969 55.164062 55.167969h176.730469c30.421875 0 55.167969-24.746094 55.167969-55.167969 0-30.417969-24.746094-55.167969-55.167969-55.167969zm0 0" fill="#b9dd39"/><path d="m399.53125 215.832031c0-30.417969-24.746094-55.167969-55.167969-55.167969h-88.363281v110.335938h88.363281c30.421875 0 55.167969-24.746094 55.167969-55.167969zm0 0" fill="#00ab5e"/><path d="m312.230469 80.332031h-112.464844c-30.417969 0-55.167969 24.75-55.167969 55.167969s24.75 55.164062 55.167969 55.164062h112.464844c30.421875 0 55.167969-24.746093 55.167969-55.164062s-24.746094-55.167969-55.167969-55.167969zm0 0" fill="#00abe9"/><path d="m367.398438 135.5c0-30.417969-24.746094-55.167969-55.167969-55.167969h-56.230469v110.332031h56.230469c30.421875 0 55.167969-24.746093 55.167969-55.164062zm0 0" fill="#0065a3"/><path d="m256 0c-30.421875 0-55.167969 24.746094-55.167969 55.164062v40.167969c0 8.285157 6.71875 15 15 15h80.332031c8.285157 0 15-6.714843 15-15v-40.167969c0-30.417968-24.746093-55.164062-55.164062-55.164062zm0 0" fill="#ff9f00"/><path d="m311.164062 95.332031v-40.167969c0-30.417968-24.746093-55.164062-55.164062-55.164062v110.332031h40.164062c8.285157 0 15-6.714843 15-15zm0 0" fill="#ff641a"/></svg>