<svg height="512pt" viewBox="0 0 512 512" width="512pt" xmlns="http://www.w3.org/2000/svg"><path d="m480.933594 48.199219h-88.367188c-17.128906 0-31.066406 13.9375-31.066406 31.066406v353.464844c0 17.132812 13.9375 31.066406 31.066406 31.066406h88.367188c17.128906 0 31.066406-13.9375 31.066406-31.066406v-353.464844c0-17.128906-13.9375-31.066406-31.066406-31.066406zm0 0" fill="#ff4949"/><path d="m512 79.265625c0-17.128906-13.9375-31.066406-31.066406-31.066406h-88.367188c-17.128906 0-31.066406 13.9375-31.066406 31.066406v176.734375h150.5zm0 0" fill="#f30051"/><path d="m360.433594 32.132812h-88.367188c-17.128906 0-31.066406 13.9375-31.066406 31.066407v385.601562c0 17.128907 13.9375 31.0625 31.066406 31.0625h88.363282c17.132812 0 31.070312-13.933593 31.070312-31.0625v-385.601562c0-17.128907-13.9375-31.066407-31.066406-31.066407zm0 0" fill="#ffde46"/><path d="m391.5 63.199219c0-17.128907-13.9375-31.066407-31.066406-31.066407h-88.367188c-17.128906 0-31.066406 13.9375-31.066406 31.066407v192.800781h150.5zm0 0" fill="#ff9f04"/><path d="m239.933594 16.066406h-88.367188c-17.128906 0-31.066406 13.9375-31.066406 31.066406v417.730469c0 17.128907 13.9375 31.066407 31.066406 31.066407h88.367188c17.132812 0 31.066406-13.9375 31.066406-31.066407v-417.730469c0-17.128906-13.933594-31.066406-31.066406-31.066406zm0 0" fill="#b9dd39"/><path d="m271 47.132812c0-17.128906-13.933594-31.066406-31.066406-31.066406h-88.367188c-17.128906 0-31.066406 13.9375-31.066406 31.066406v208.867188h150.5zm0 0" fill="#00ab5e"/><path d="m119.433594 0h-88.367188c-17.128906 0-31.066406 13.9375-31.066406 31.066406v449.863282c0 17.132812 13.9375 31.066406 31.066406 31.066406h88.367188c17.128906 0 31.066406-13.9375 31.066406-31.066406v-449.863282c0-17.128906-13.9375-31.066406-31.066406-31.066406zm0 0" fill="#00abe9"/><path d="m150.5 31.066406c0-17.128906-13.9375-31.066406-31.066406-31.066406h-88.367188c-17.128906 0-31.066406 13.9375-31.066406 31.066406v224.933594h150.5zm0 0" fill="#0065a3"/><path d="m436.753906 134.4375c-3.949218 0-7.820312-1.609375-10.609375-4.398438-2.789062-2.792968-4.390625-6.660156-4.390625-10.601562 0-3.949219 1.601563-7.820312 4.390625-10.609375 2.789063-2.789063 6.660157-4.390625 10.609375-4.390625 3.949219 0 7.808594 1.601562 10.601563 4.390625 2.789062 2.789063 4.398437 6.660156 4.398437 10.609375 0 3.941406-1.609375 7.808594-4.398437 10.601562-2.792969 2.789063-6.652344 4.398438-10.601563 4.398438zm0 0" fill="#d5eded"/><path d="m436.753906 407.566406c-3.949218 0-7.820312-1.597656-10.609375-4.398437-2.789062-2.789063-4.390625-6.648438-4.390625-10.601563 0-3.949218 1.601563-7.820312 4.390625-10.609375 2.789063-2.789062 6.660157-4.390625 10.609375-4.390625 3.9375 0 7.808594 1.601563 10.601563 4.390625 2.796875 2.789063 4.398437 6.660157 4.398437 10.609375 0 3.941406-1.601562 7.8125-4.398437 10.601563-2.792969 2.800781-6.664063 4.398437-10.601563 4.398437zm0 0" fill="#fef4f5"/><path d="m316.253906 118.367188c-3.949218 0-7.820312-1.597657-10.609375-4.390626-2.789062-2.796874-4.390625-6.660156-4.390625-10.609374 0-3.949219 1.601563-7.816407 4.390625-10.609376 2.789063-2.789062 6.660157-4.390624 10.609375-4.390624 3.949219 0 7.808594 1.601562 10.601563 4.390624 2.796875 2.800782 4.398437 6.660157 4.398437 10.609376 0 3.941406-1.601562 7.8125-4.398437 10.609374-2.792969 2.792969-6.664063 4.390626-10.601563 4.390626zm0 0" fill="#d5eded"/><path d="m316.253906 423.628906c-3.949218 0-7.820312-1.601562-10.609375-4.390625-2.789062-2.789062-4.390625-6.660156-4.390625-10.609375 0-3.941406 1.601563-7.8125 4.390625-10.601562 2.789063-2.800782 6.660157-4.398438 10.609375-4.398438 3.9375 0 7.808594 1.601563 10.601563 4.398438 2.789062 2.789062 4.398437 6.660156 4.398437 10.601562 0 3.949219-1.609375 7.820313-4.398437 10.609375-2.792969 2.789063-6.664063 4.390625-10.601563 4.390625zm0 0" fill="#fef4f5"/><path d="m195.753906 102.300781c-3.949218 0-7.820312-1.601562-10.609375-4.394531-2.789062-2.796875-4.390625-6.660156-4.390625-10.605469 0-3.953125 1.601563-7.8125 4.390625-10.613281 2.789063-2.789062 6.660157-4.386719 10.609375-4.386719 3.9375 0 7.808594 1.597657 10.601563 4.386719 2.789062 2.800781 4.390625 6.660156 4.390625 10.613281 0 3.945313-1.601563 7.808594-4.390625 10.605469-2.792969 2.792969-6.664063 4.394531-10.601563 4.394531zm0 0" fill="#d5eded"/><path d="m195.753906 439.699219c-3.949218 0-7.820312-1.601563-10.609375-4.390625-2.789062-2.800782-4.398437-6.660156-4.398437-10.609375 0-3.953125 1.609375-7.8125 4.398437-10.609375 2.789063-2.789063 6.660157-4.390625 10.609375-4.390625 3.9375 0 7.808594 1.601562 10.601563 4.390625 2.789062 2.789062 4.398437 6.65625 4.398437 10.609375 0 3.949219-1.609375 7.808593-4.398437 10.609375-2.792969 2.789062-6.664063 4.390625-10.601563 4.390625zm0 0" fill="#fef4f5"/><path d="m75.253906 86.226562c-3.960937 0-7.820312-1.597656-10.609375-4.386718-2.789062-2.792969-4.390625-6.660156-4.390625-10.613282 0-3.9375 1.601563-7.808593 4.390625-10.597656 2.789063-2.789062 6.660157-4.402344 10.609375-4.402344 3.9375 0 7.808594 1.613282 10.601563 4.402344 2.796875 2.789063 4.398437 6.65625 4.398437 10.597656 0 3.953126-1.601562 7.820313-4.398437 10.613282-2.792969 2.789062-6.652344 4.386718-10.601563 4.386718zm0 0" fill="#d5eded"/><path d="m75.253906 455.769531c-3.949218 0-7.820312-1.601562-10.609375-4.402343-2.789062-2.789063-4.390625-6.648438-4.390625-10.597657s1.601563-7.820312 4.390625-10.609375c2.789063-2.792968 6.660157-4.390625 10.609375-4.390625 3.949219 0 7.808594 1.597657 10.601563 4.390625 2.789062 2.789063 4.398437 6.660156 4.398437 10.609375s-1.609375 7.808594-4.398437 10.597657c-2.792969 2.800781-6.652344 4.402343-10.601563 4.402343zm0 0" fill="#fef4f5"/><path d="m436.75 271h-301.25c-8.285156 0-15-6.714844-15-15s6.714844-15 15-15h301.25c8.28125 0 15 6.714844 15 15s-6.71875 15-15 15zm0 0" fill="#fef4f5"/><path d="m436.75 241h-301.25c-8.285156 0-15 6.714844-15 15h331.25c0-8.285156-6.71875-15-15-15zm0 0" fill="#d5eded"/><path d="m75.25 180.75c-41.492188 0-75.25 33.757812-75.25 75.25s33.757812 75.25 75.25 75.25 75.25-33.757812 75.25-75.25-33.757812-75.25-75.25-75.25zm0 0" fill="#ff4949"/><path d="m75.25 180.75c-41.492188 0-75.25 33.757812-75.25 75.25h150.5c0-41.492188-33.757812-75.25-75.25-75.25zm0 0" fill="#f30051"/></svg>